<svg width="24" height="24" viewBox="0 0 24 24" fill="none" xmlns="http://www.w3.org/2000/svg">
<path d="M19.2847 18.2158C19.4255 18.358 19.5045 18.5501 19.5045 18.7502C19.5045 18.9504 19.4255 19.1424 19.2847 19.2846C19.1413 19.4232 18.9497 19.5007 18.7503 19.5007C18.5509 19.5007 18.3593 19.4232 18.2159 19.2846L12.0003 13.0596L5.78469 19.2846C5.64133 19.4232 5.44972 19.5007 5.25031 19.5007C5.0509 19.5007 4.85929 19.4232 4.71594 19.2846C4.5751 19.1424 4.49609 18.9504 4.49609 18.7502C4.49609 18.5501 4.5751 18.358 4.71594 18.2158L10.9409 12.0002L4.71594 5.78459C4.59634 5.63887 4.53522 5.45387 4.54447 5.26558C4.55372 5.07729 4.63267 4.89917 4.76597 4.76587C4.89927 4.63257 5.07739 4.55362 5.26568 4.54437C5.45397 4.53512 5.63897 4.59624 5.78469 4.71584L12.0003 10.9408L18.2159 4.71584C18.3617 4.59624 18.5467 4.53512 18.7349 4.54437C18.9232 4.55362 19.1014 4.63257 19.2347 4.76587C19.368 4.89917 19.4469 5.07729 19.4562 5.26558C19.4654 5.45387 19.4043 5.63887 19.2847 5.78459L13.0597 12.0002L19.2847 18.2158Z" fill="black" fill-opacity="0.5"/>
</svg>
