<svg width="107" height="40" viewBox="0 0 107 40" fill="none" xmlns="http://www.w3.org/2000/svg">
<path d="M0.910156 22.1538C1.85483 23.2544 3.0172 24.0607 4.32902 24.6628C4.79121 24.8752 5.26883 25.0437 5.83336 25.1872C3.11061 22.4715 2.69554 19.1748 3.04969 15.6001C3.26332 15.7346 3.1691 15.9121 3.21783 16.041C3.27225 16.1844 3.29256 16.3416 3.32424 16.4932C3.75637 18.5386 4.46711 20.4658 5.74807 22.1473C6.05755 22.5534 6.4117 22.9237 6.8154 23.2406C6.82758 23.2503 6.8682 23.2244 6.895 23.2155C6.97298 23.2073 7.02009 23.2584 7.06071 23.3111C7.7812 24.2414 8.30268 25.2406 8.25638 26.4668C8.22876 27.2026 8.25475 27.9409 8.24988 28.6784C8.24663 29.1152 8.15728 29.167 7.78526 28.949C6.77722 28.3599 5.86341 27.6411 4.98616 26.936C5.44672 27.6176 5.93408 28.3275 6.48805 28.9904C6.96161 29.5569 7.43842 30.1193 8.01594 30.5853C8.15322 30.6963 8.24257 30.83 8.24663 31.0123C8.27587 32.2636 8.90051 33.2377 9.70548 34.1251C10.0442 34.4987 10.4292 34.8228 10.8337 35.1251C10.9345 35.2005 11.0807 35.2548 11.0587 35.4266C10.4511 35.1875 9.93698 34.7953 9.4155 34.4193C8.22795 33.5651 7.12407 32.6113 6.12578 31.5431C4.85294 30.1809 3.75393 28.6905 2.85799 27.0519C2.09202 25.6515 1.48281 24.1887 1.04256 22.6555C1.0125 22.5517 1.00113 22.435 0.910968 22.3556C0.910156 22.2875 0.910156 22.2203 0.910156 22.1538Z" fill="#E0E6EE"/>
<path d="M11.0585 35.426C10.4258 34.9138 9.77921 34.4146 9.27885 33.7622C8.64446 32.9348 8.14573 32.0515 8.16928 30.9647C8.17334 30.7808 8.03688 30.7216 7.93291 30.6308C6.64058 29.5044 5.66829 28.1218 4.76097 26.6826C5.84861 27.5213 6.91838 28.3803 8.17091 29.0708C8.1376 27.8487 8.25132 26.6688 8.08724 25.4969C7.96296 24.6047 7.39518 23.9231 6.89482 23.2148C5.62117 21.1888 4.8422 19.0088 4.78697 16.593C4.7496 14.9698 4.98597 13.3968 5.57487 11.8838C5.65123 11.6877 5.55944 11.5945 5.47415 11.4697C4.72848 10.3772 4.47668 9.2208 5.01359 7.96225C5.02171 7.94361 5.03796 7.92821 5.07776 7.87391C5.30438 8.89259 6.00294 9.37802 6.94681 9.63654C6.483 7.44764 6.21495 5.33411 8.13273 3.63875C7.72415 4.73198 7.95728 5.60965 8.95963 6.27499C8.86865 4.61366 9.30647 3.69305 10.5005 3.04553C10.1269 4.68336 10.494 6.06104 11.8984 7.16319C11.2933 5.23443 11.3047 3.47586 12.7919 1.91745C13.1128 3.31135 13.6083 4.54721 14.8909 5.33735C14.9274 4.70443 14.9339 4.11365 15.0915 3.54069C15.1841 3.20437 15.3157 2.8867 15.5602 2.62899C15.6901 2.49122 15.7632 2.46853 15.8388 2.69949C16.2677 4.02045 16.9354 5.20769 17.8995 6.21745C18.2699 6.60482 18.6761 6.95087 19.174 7.24909C19.1017 6.55458 19.1098 5.89653 19.1829 5.23524C19.4307 2.99772 21.0227 1.15568 23.1996 0.593256C23.4287 0.534097 23.4766 0.671055 23.5416 0.806392C23.8365 1.42311 23.9055 2.08683 23.9307 2.75784C23.9412 3.04229 23.9323 3.32674 23.9323 3.64766C24.4408 3.035 24.7779 2.36318 24.9412 1.54872C25.8436 2.28943 26.4853 3.1671 26.8476 4.24736C27.2082 5.32277 27.1847 6.41438 26.9678 7.55867C28.702 6.76528 30.2437 5.8163 31.1697 4.11932C31.445 3.61444 31.6164 3.07147 31.6278 2.49446C31.6335 2.21082 31.7131 2.19542 31.9275 2.32914C33.1541 3.09497 33.8088 4.19793 33.8973 5.63639C33.9046 5.75795 33.8981 5.88032 33.8981 6.04484C35.1198 5.59911 36.0953 4.90541 36.7573 3.74653C37.6354 5.30656 38.1358 6.86658 37.3219 8.64055C38.3226 8.27587 39.0203 7.66726 39.3867 6.64534C39.5922 7.14941 39.6864 7.63566 39.7433 8.13324C39.8838 9.35695 39.5377 10.5183 39.2981 11.6942C39.2851 11.759 39.2803 11.8262 39.2721 11.8919C38.9229 12.0694 38.5939 11.9275 38.2714 11.8117C37.6914 11.6034 37.2756 11.1812 36.9019 10.7144C36.4747 10.1803 36.1798 9.55874 35.7826 9.00443C35.7054 8.89664 35.6437 8.7767 35.5414 8.68756C35.4293 8.73213 35.4447 8.83829 35.4122 8.91447C35.2757 9.23701 35.1133 9.5401 34.8379 9.76863C34.7218 9.86507 34.5959 10.0409 34.4423 9.92585C34.3221 9.83671 34.4513 9.67868 34.5025 9.56036C34.7031 9.09195 34.7575 8.61786 34.5983 8.12433C34.5065 7.84231 34.3278 7.67131 34.0362 7.61215C33.2556 7.45494 32.5278 7.59027 31.8374 7.9817C31.2493 8.31477 30.7059 8.71187 30.2201 9.17299C29.035 10.2962 27.884 11.4527 26.9759 12.823C26.8086 13.0759 26.6656 13.3409 26.5706 13.6286C26.5446 13.7072 26.4658 13.8053 26.5543 13.8741C26.6323 13.9357 26.7241 13.8612 26.8037 13.8271C27.2017 13.6578 27.5169 13.3709 27.841 13.0961C27.9417 13.0111 28.0481 12.8093 28.1854 12.9397C28.304 13.0524 28.1505 13.2064 28.0635 13.3166C27.6883 13.7931 27.2813 14.234 26.7176 14.5014C26.4699 14.6189 26.4682 14.7534 26.7005 14.9017C26.928 15.0468 27.1863 15.0638 27.4462 15.0419C27.9393 14.9998 28.3698 14.7883 28.78 14.5281C29.6426 13.9803 30.3923 13.2898 31.1786 12.6456C31.3256 12.5248 31.4767 12.4097 31.6237 12.289C32.3191 11.716 33.0826 11.6674 33.89 12.0062C34.5821 12.2963 35.2067 12.7209 35.8979 13.0143C36.0441 13.0767 36.1059 13.2007 36.1294 13.3571C36.27 14.3036 36.1538 15.2494 36.1286 16.1959C36.1238 16.3726 36.0336 16.4869 35.8671 16.5468C35.7615 16.5849 35.6567 16.6222 35.5495 16.6562C34.3717 17.0315 33.6715 17.7851 33.6317 19.0623C33.6349 19.1823 33.6171 19.3046 33.6358 19.3662C33.6154 19.3419 33.6366 19.252 33.6317 19.1661C33.6707 18.585 34.0931 18.2568 34.4976 17.9537C35.1539 17.4626 35.9117 17.1968 36.7411 17.1684C37.1651 17.1538 37.2252 17.0995 37.2325 16.6806C37.2455 15.9253 37.0497 15.2008 36.8987 14.4698C36.8442 14.208 36.7679 13.9511 36.7053 13.6902C36.5754 13.1513 36.6769 13.0378 37.2488 13.0751C37.3462 13.148 37.373 13.2582 37.3942 13.3676C37.5818 14.3207 37.7256 15.2794 37.7483 16.2519C37.7564 16.5995 37.6923 16.9407 37.5818 17.2713C37.4705 17.6052 37.2447 17.8143 36.893 17.8848C35.2814 18.2082 34.2247 19.5794 34.1905 21.2999C34.1857 21.5568 34.1832 21.8137 34.1922 22.0697C34.2011 22.3526 34.2628 22.3834 34.5138 22.2351C34.6974 22.1273 34.8615 21.9919 35.028 21.8607C35.0629 21.8331 35.093 21.7991 35.1295 21.7731C35.2676 21.6759 35.4211 21.4498 35.5698 21.5875C35.7103 21.7172 35.521 21.9109 35.4309 22.0568C35.2018 22.4287 34.9378 22.7756 34.6145 23.0714C34.444 23.2278 34.3611 23.4085 34.431 23.6395C34.4765 23.7975 34.4407 24.0414 34.5869 24.0917C34.7543 24.15 34.8907 23.9442 35.0182 23.8283C35.8297 23.0957 36.4917 22.2448 37.0351 21.2974C37.1261 21.1386 37.1562 20.9036 37.4072 20.876C37.4989 21.0227 37.4218 21.158 37.3698 21.2877C36.8491 22.59 36.127 23.77 35.1571 24.7862C34.9378 25.0156 34.8647 25.2133 35.0288 25.4848C35.2229 25.9945 35.1775 26.0213 35.5958 25.6071C36.7874 24.4288 37.7702 23.0941 38.5679 21.6248C38.8498 21.1054 39.0577 20.5502 39.2348 19.9846C39.5085 18.9205 39.6466 17.8411 39.5784 16.7438C39.4906 15.3426 39.342 13.9495 38.8798 12.6099C38.8433 12.5046 38.7978 12.4024 38.8156 12.2866C38.9058 12.0904 39.0098 11.9122 39.2754 11.9624C39.7229 13.1553 40.047 14.3774 40.1697 15.6497C40.3614 17.6449 40.1738 19.5842 39.3396 21.432C39.3038 21.5114 39.277 21.5948 39.2461 21.6767C39.2933 21.8234 39.2063 21.936 39.143 22.0511C38.7937 22.6881 38.4054 23.3007 37.9644 23.8786C37.7475 24.163 37.5485 24.4596 37.3454 24.7538C36.8832 25.4232 36.5811 26.1339 36.6664 26.9751C36.7029 27.3382 36.6704 27.7085 36.6745 28.1129C36.884 28.0529 37.0351 27.9403 37.1854 27.839C38.1317 27.2004 39.0488 26.5245 39.8164 25.6704C39.8537 25.629 39.8878 25.5845 39.9325 25.5504C39.9772 25.5172 40.0275 25.4799 40.0812 25.5245C40.1169 25.5545 40.1145 25.6047 40.1055 25.6501C40.0925 25.7166 40.0592 25.7749 40.0276 25.8341C39.221 27.3584 38.178 28.7021 36.9149 29.8747C36.7435 30.0336 36.6558 30.1956 36.6704 30.4266C36.6818 30.6041 36.6631 30.784 36.6745 30.9623C36.759 32.3278 36.1376 33.3635 35.1466 34.2266C35.071 34.2922 34.9971 34.3611 34.9167 34.4219C32.6204 36.2453 30.182 37.845 27.5063 39.0655C27.0912 39.2551 26.6551 39.3961 26.2343 39.5736C25.4456 39.9051 24.6154 39.8556 23.7893 39.8475C23.3142 39.8427 22.8219 39.9343 22.3979 39.6166C22.3337 39.568 22.2753 39.6044 22.2095 39.6231C20.7051 40.0453 19.226 39.914 17.7679 39.4051C15.7957 38.7162 14.0721 37.5841 12.3907 36.3798C11.9464 36.063 11.5029 35.7445 11.0585 35.426Z" fill="#00030B"/>
<path d="M37.2435 13.1131C36.6822 13.229 36.6936 13.2265 36.8244 13.7711C37.0583 14.7428 37.3393 15.708 37.3312 16.7218C37.3272 17.2153 37.2833 17.2445 36.8008 17.2624C35.7708 17.3013 34.8619 17.6432 34.126 18.3823C33.9034 18.606 33.732 18.8653 33.6849 19.1887C33.5541 19.2373 33.6264 19.0906 33.5696 19.0687C33.5493 17.9018 34.1593 17.0743 35.3728 16.6229C36.0283 16.379 36.0259 16.379 36.0616 15.6821C36.1006 14.913 36.1128 14.1447 36.0503 13.3765C36.0421 13.2727 36.0852 13.1552 35.9309 13.1009C35.3176 12.8862 34.7774 12.5239 34.2023 12.2314C33.2341 11.7386 32.3406 11.733 31.4845 12.4996C30.8119 13.1017 30.1003 13.6634 29.3823 14.2128C28.7983 14.6593 28.1882 15.0807 27.415 15.1415C27.0941 15.1666 26.7871 15.1213 26.5369 14.9041C26.3078 14.7055 26.3322 14.5742 26.6035 14.4567C27.3191 14.148 27.8 13.5977 28.1509 12.9048C28.0485 13.0037 27.9486 13.105 27.8438 13.2006C27.7366 13.2987 27.627 13.3935 27.5141 13.4843C27.2355 13.7104 26.9333 13.8967 26.5873 14.0045C26.5247 14.024 26.4581 14.071 26.4004 14.0207C26.3411 13.9689 26.3809 13.8951 26.3996 13.8343C26.4987 13.515 26.6222 13.2022 26.8123 12.9267C28.107 11.0466 29.6325 9.38443 31.517 8.07644C32.1026 7.67043 32.7573 7.43136 33.4924 7.44594C34.6548 7.46864 34.8725 8.02538 34.7425 9.10484C34.7084 9.38605 34.5719 9.64619 34.4062 9.95576C35.065 9.61863 35.3135 9.08134 35.4557 8.4395C35.796 8.79526 36.0178 9.18183 36.2517 9.55866C36.5986 10.117 36.921 10.6948 37.41 11.1487C37.9339 11.6349 38.5366 11.9364 39.275 11.8926C39.2758 11.9161 39.2758 11.9404 39.2766 11.9639C39.0931 11.9793 39.024 12.1633 38.8794 12.2354C38.7884 12.4348 38.5968 12.5158 38.427 12.6236C38.2296 12.7565 38.029 12.8846 37.8121 12.9842C37.6253 13.0418 37.4555 13.1722 37.2435 13.1131Z" fill="#E0E6EE"/>
<path d="M34.916 34.4236C35.1963 34.106 35.5049 33.8158 35.7657 33.4795C36.3781 32.6878 36.6981 31.8141 36.5739 30.8036C36.5186 30.3554 36.6055 30.011 36.9873 29.6698C38.1968 28.5912 39.1366 27.2881 39.9131 25.8682C39.9651 25.7726 40.0114 25.6745 40.0472 25.5651C39.0529 26.673 37.8678 27.5336 36.5503 28.3359C36.6299 27.3691 36.4082 26.446 36.7842 25.5676C36.9922 25.0829 37.2944 24.6542 37.603 24.232C38.2017 23.4143 38.7889 22.5893 39.2446 21.6801C39.4306 21.6152 39.5005 21.4361 39.5972 21.2959C40.8351 19.5163 41.5263 17.5219 41.8935 15.4027C41.9121 15.2933 41.9349 15.1887 42.0616 15.0186C42.2232 16.6993 42.2436 18.2934 41.8951 19.8793C41.545 21.471 40.8879 22.9111 39.7929 24.1477C41.4248 23.6242 42.7537 22.6631 43.8852 21.3924C43.7122 22.1144 43.4465 22.7952 43.1793 23.4743C42.2403 25.8544 40.9423 28.0304 39.3738 30.0459C38.5932 31.0491 37.7517 32.0046 36.8184 32.8685C36.2644 33.3815 35.7202 33.9115 35.0907 34.3386C35.0387 34.375 34.9753 34.3961 34.916 34.4236Z" fill="#E0E6EE"/>
<path d="M25.0972 9.28887C26.0768 8.98497 27.0832 8.76616 28.0222 8.33664C29.6378 7.59756 30.9001 6.42815 32.0088 5.07802C32.2298 4.80896 32.3971 4.87947 32.5823 5.06019C32.9275 5.39812 33.1095 5.8325 33.2354 6.28633C33.3134 6.56916 33.4636 6.66154 33.7569 6.68018C34.6723 6.73691 35.513 6.54565 36.2708 6.027C36.4252 5.92164 36.5186 5.95406 36.6412 6.074C36.9759 6.39978 37.0921 6.8139 37.1205 7.25314C37.1505 7.72074 37.14 8.19077 37.0108 8.64703C36.9483 8.86827 37.0206 8.95174 37.2521 8.94688C37.9612 8.93229 38.5923 8.73212 39.1049 8.22076C39.1877 8.1381 39.3023 7.9517 39.3689 8.22481C39.5378 8.91284 39.4444 10.4056 38.6939 11.0296C38.6768 11.0434 38.6557 11.0523 38.5883 11.0912C38.8344 10.592 39.0805 10.1349 39.0651 9.5328C38.8181 9.86506 38.6524 10.1852 38.3438 10.378C38.2585 10.4315 38.1756 10.4875 38.0879 10.5353C37.8288 10.6763 37.6387 10.6447 37.4966 10.3513C37.2781 9.89991 37.0409 9.45662 36.7931 9.02062C36.2034 7.9825 35.4025 7.19236 34.1947 6.9152C33.3694 6.72556 32.5782 6.88683 31.8139 7.21018C30.7392 7.66482 29.8319 8.36906 28.9717 9.13894C28.6387 9.43717 28.313 9.7435 27.9889 10.0515C27.7436 10.284 27.4966 10.3943 27.1945 10.139C27.0255 9.99635 26.833 10.0028 26.6259 10.0766C26.0638 10.2776 25.6317 10.6698 25.1857 11.0393C24.8056 11.3546 24.4084 11.6423 23.9576 11.8473C23.272 12.1593 22.7351 12.041 22.2575 11.4591C21.7384 10.827 21.1918 10.2233 20.5346 9.73054C20.0465 9.36423 19.5242 9.0733 18.8857 9.07087C18.4966 9.06925 18.166 9.20215 17.8793 9.45986C17.7461 9.57899 17.6137 9.69893 17.4748 9.81158C17.0167 10.1827 16.6966 10.19 16.1995 9.86993C15.1127 9.16974 13.9316 8.75643 12.6263 8.83018C11.4875 8.89501 10.4689 9.35937 9.47549 9.88289C8.75501 10.263 8.04508 10.6666 7.26042 10.9121C5.95022 11.3214 4.99336 10.6195 5.00798 9.25402C5.00879 9.19891 5.00798 9.14381 5.00798 9.00361C5.0957 9.19243 5.14688 9.30994 5.20374 9.4242C5.63018 10.2767 6.51719 10.592 7.38064 10.1836C8.10681 9.83994 8.67946 9.27752 9.29273 8.77912C10.1911 8.04895 11.161 7.55704 12.3574 7.67536C12.5857 7.69805 12.6117 7.6162 12.5678 7.40549C12.4874 7.02298 12.4549 6.63237 12.7603 6.25715C13.3866 7.3593 14.3678 7.95413 15.5334 8.37878C15.1403 6.93465 15.1354 6.79445 15.4571 6.34143C15.6691 6.57078 15.8527 6.82119 16.0988 7.01488C16.9517 7.68832 17.9548 7.93712 19.0043 7.99303C20.1447 8.05381 21.0585 8.52142 21.8091 9.34316C21.8156 8.8399 21.6085 8.31395 21.195 7.76693C20.8823 7.35281 20.5086 7.0011 20.0911 6.69801C19.9685 6.60887 19.9116 6.51891 19.9189 6.36818C19.9693 5.29682 20.3657 4.38026 21.1252 3.61767C21.2697 3.47261 21.403 3.51637 21.5508 3.57958C22.7148 4.07717 23.3703 4.97509 23.618 6.19475C23.6814 6.50757 23.6984 6.82443 23.7269 7.14616C24.2102 6.33495 24.3962 5.47106 24.2427 4.54396C24.8405 5.09179 25.1118 6.72962 24.752 8.54411C24.756 8.75319 24.6886 8.92419 24.5237 9.0652C24.263 9.28806 24.1249 9.58223 24.0656 9.88775C24.2792 9.49309 24.6415 9.31642 25.0972 9.28887Z" fill="#637298"/>
<path d="M32.1025 35.1774C32.6589 34.5136 33.1251 33.8678 33.4858 33.1538C34.4402 31.2639 34.7123 29.3287 33.8237 27.3351C33.3575 26.2897 32.6556 25.5214 31.4153 25.4404C30.5437 25.3836 29.7046 25.5247 28.8818 25.8051C28.3628 25.9817 27.8884 26.2524 27.3921 26.4769C26.4726 26.8918 25.5125 27.1017 24.4996 27.0523C24.052 27.0304 23.7052 26.7014 23.6824 26.2516C23.6418 25.4614 23.6085 24.6705 23.5622 23.8803C23.5525 23.7126 23.5809 23.6429 23.7653 23.5959C24.3542 23.4468 24.8196 23.0756 25.2648 22.6834C25.4824 22.4913 25.6782 22.2758 25.8845 22.0707C26.1176 21.8398 26.2484 21.5334 26.7374 21.7295C27.2102 21.9192 27.7682 21.2668 27.7787 20.612C27.7901 19.9175 27.4473 19.3567 27.068 18.8121C27.0095 18.7278 26.8576 18.6589 26.9202 18.5438C26.9852 18.4247 27.1403 18.4677 27.2613 18.4644C27.4546 18.4596 27.635 18.5195 27.8137 18.5827C29.2676 19.0982 30.4381 19.9937 31.3576 21.2222C31.685 21.6598 31.9953 22.1104 32.3169 22.5521C32.3803 22.6396 32.4095 22.7596 32.5297 22.7993C32.7328 22.1809 33.0553 21.6517 33.6344 21.27C33.1796 22.9411 33.6694 24.4655 34.2583 25.9631C34.8618 27.5004 35.3305 29.0677 35.5685 30.7047C35.6944 31.5694 35.4206 32.2777 34.8464 32.9058C34.0739 33.7527 33.1934 34.4723 32.2576 35.1287C32.2333 35.1458 32.2008 35.1474 32.1025 35.1774Z" fill="#E0E6EE"/>
<path d="M7.14602 15.4463C7.29954 16.0646 7.51398 16.6603 7.82671 17.2178C7.89413 17.3378 7.90956 17.4658 7.89819 17.6036C7.79828 18.8386 8.11588 19.8152 8.97283 20.8355C8.84286 20.4846 8.73564 20.1985 8.63005 19.9108C8.51714 19.6045 8.48546 19.2811 8.45378 18.961C8.42129 18.6385 8.45378 18.3159 8.52526 17.9731C8.81768 18.1498 9.11579 18.2527 9.13122 18.7017C9.14584 19.1271 9.41958 19.4772 9.79323 19.8314C9.6259 19.3727 9.59259 18.9788 9.66083 18.5558C11.4795 19.1134 13.0106 18.3645 14.5134 17.508C15.0365 17.2097 15.5295 16.8613 16.0664 16.5817C16.6635 16.2705 17.293 16.1943 17.9517 16.2486C18.1442 16.2648 18.1987 16.3086 18.1361 16.516C17.9891 17.0055 17.8851 17.5047 17.8218 18.0153C17.7397 18.6749 17.7755 19.3006 18.1718 19.9027C17.4083 20.0032 16.6797 20.1401 15.9633 20.3387C15.0779 20.5842 14.2323 20.9173 13.4282 21.3663C12.0481 22.137 11.3114 23.3275 11.0523 24.8583C10.8801 25.8721 10.9393 26.8754 11.101 27.8843C10.7736 27.1834 10.5592 26.4467 10.3829 25.6987C10.2221 25.0139 10.1092 24.321 10.1173 23.6151C10.1189 23.4717 10.0556 23.3874 9.95324 23.3112C9.12878 22.7002 8.49358 21.9101 7.86894 21.1102C7.80721 21.0316 7.78528 20.9214 7.74467 20.8257C7.34584 20.3241 7.16145 19.7309 7.01281 19.1215C6.96813 18.9383 6.94214 18.7487 6.84304 18.5809C6.71957 17.6012 6.774 16.6295 6.97382 15.6643C6.99412 15.5735 7.0193 15.4657 7.14602 15.4463Z" fill="#8FA0BD"/>
<path d="M18.7412 20.8931C18.6144 20.4239 18.7753 20.0843 19.0547 19.7845C19.3398 19.479 19.6842 19.252 20.0579 19.0705C20.1886 19.0065 20.2585 18.9392 20.2764 18.7812C20.4502 17.2763 20.6549 15.7746 20.8409 14.2721C21.0074 12.9244 20.4185 11.8012 19.5185 10.8271C19.3528 10.6472 19.2001 10.4551 19.0319 10.2566C19.7427 10.178 20.4023 10.3473 20.9514 10.8684C21.4371 11.3287 21.8237 11.8871 22.359 12.3012C22.545 12.4455 22.7351 12.5808 22.9455 12.6854C23.5328 12.9755 24.0047 12.8863 24.4539 12.405C25.0225 11.7939 25.9672 11.1675 26.5942 10.9957C26.1792 11.507 25.7803 12.0006 25.4473 12.5411C25.2491 12.8628 25.0533 13.191 24.9624 13.5606C24.8966 13.828 24.7869 13.8815 24.5181 13.794C23.8325 13.5711 23.2412 13.7397 22.7814 14.3086C22.7408 14.358 22.7132 14.418 22.6588 14.5055C22.7554 14.4731 22.8163 14.4553 22.8756 14.4334C23.4548 14.2235 23.826 14.3977 23.9535 14.9918C24.0916 15.6328 24.1802 16.2844 24.2922 16.9302C24.3459 17.2382 24.4417 17.5348 24.5725 17.8176C24.7837 18.2739 25.1086 18.5948 25.6122 18.7374C26.223 18.9109 26.6397 19.3031 26.816 19.9255C26.8339 19.9895 26.8436 20.056 26.8501 20.1224C26.8542 20.1605 26.846 20.1994 26.8387 20.2975C26.5658 19.7748 26.1296 19.5811 25.6447 19.4441C25.44 19.3866 25.3466 19.4093 25.293 19.637C25.1939 20.0624 25.0135 20.4595 24.7504 20.8113C24.1598 21.6022 23.3614 21.9312 22.385 21.8413C21.9399 21.8008 21.6686 21.5106 21.4566 21.1524C21.2698 20.8364 21.1114 20.5025 20.9059 20.1994C20.6208 19.7796 20.3616 19.7245 19.8995 19.9401C19.4446 20.1516 19.114 20.5179 18.7412 20.8931Z" fill="#E0E6EE"/>
<path d="M30.6745 35.7981C29.9199 36.7601 28.9289 37.4108 27.8218 37.8866C25.8975 38.7132 23.8725 39.0503 21.7857 39.0268C21.2959 39.0211 20.8061 38.949 20.3415 38.7731C19.3717 38.4068 18.7324 37.7415 18.6772 36.6847C18.6268 35.7122 19.1507 35.0153 19.9801 34.5501C20.7956 34.0931 21.6891 33.999 22.6053 34.0452C22.7922 34.055 22.9782 34.0809 23.169 34.1004C21.88 34.8305 21.5949 35.6118 22.2008 36.8298C22.0871 36.1555 22.1886 35.5737 22.6638 35.1028C23.1098 34.6612 23.6751 34.4618 24.2762 34.354C25.1664 34.1944 25.8861 34.4885 26.3962 35.2309C26.8576 35.9027 26.7349 36.7431 26.1265 37.2844C26.038 37.3638 25.9446 37.4384 25.8358 37.5292C26.9754 37.5502 29.1864 37.1783 30.6745 35.7981Z" fill="#E0E6EE"/>
<path d="M37.2431 13.113C37.4291 13.0433 37.6143 12.9736 37.8003 12.9031C38.0757 13.0717 38.1821 13.3651 38.312 13.6309C38.5484 14.1155 38.7035 14.6277 38.697 15.1285C38.6475 14.2986 38.7295 13.4056 38.3973 12.5611C38.5573 12.4525 38.7174 12.3439 38.8774 12.2354C39.0447 12.865 39.2697 13.4785 39.3785 14.1244C39.7035 16.0637 39.8813 18.0006 39.3477 19.9342C39.3339 19.9852 39.3006 20.0306 39.277 20.0792C38.9578 20.7981 38.6264 21.508 38.1886 22.1668C37.395 23.3622 36.4535 24.4222 35.3497 25.3388C35.2441 25.4263 35.1409 25.5478 34.9719 25.5114C34.764 25.2293 34.8022 25.0251 35.0662 24.7553C36.0775 23.7236 36.8183 22.5104 37.3284 21.1595C37.3633 21.0671 37.3763 20.9674 37.3998 20.871C37.3146 20.7511 37.3609 20.6384 37.421 20.5282C37.5517 20.2875 37.6638 20.0379 37.771 19.7859C37.0879 21.3329 36.0019 22.5542 34.6771 23.581C34.5918 23.6466 34.5057 23.7285 34.379 23.7001C34.2328 23.4343 34.3026 23.2349 34.5236 23.0283C34.963 22.6174 35.3383 22.1523 35.5495 21.559C35.2424 21.7965 34.9427 22.0428 34.6259 22.2665C34.4886 22.3638 34.3278 22.5526 34.1662 22.4618C34.0273 22.3832 34.1085 22.1539 34.0996 21.9918C34.0411 20.9699 34.1727 19.9869 34.79 19.1319C35.3066 18.4163 36.0084 17.9617 36.8808 17.8012C37.2236 17.738 37.4169 17.5484 37.5119 17.2372C37.6565 16.7623 37.6817 16.2728 37.6427 15.7825C37.5688 14.8837 37.4461 13.9923 37.2431 13.113Z" fill="#8FA0BD"/>
<path d="M18.5703 11.5695C19.1258 12.2097 19.5986 12.8102 19.7749 13.5809C19.9097 14.1717 19.6002 14.6296 18.9983 14.7811C18.0082 15.0307 17.1017 14.8476 16.2691 14.2633C15.534 13.7479 14.9053 13.1093 14.2311 12.5242C13.4805 11.8726 12.6691 11.7219 11.7471 12.0566C11.471 12.1571 11.1899 12.2105 10.8951 12.1327C10.467 12.0201 10.259 11.7162 10.1461 11.2364C10.0722 11.7332 10.1096 12.1392 10.402 12.4683C10.5596 12.6457 10.4743 12.683 10.3305 12.7657C8.97321 13.5485 7.71824 13.213 6.50714 12.4188C6.2196 12.23 5.9686 11.9958 5.7168 11.6846C6.79875 11.9058 7.63214 11.4261 8.48341 10.9463C9.73025 10.2437 11.0299 9.67156 12.4863 9.54189C14.015 9.40574 15.2082 9.98842 16.1212 11.1854C16.4795 11.6554 16.806 12.149 17.1553 12.6255C17.3673 12.914 17.5955 13.1919 17.9375 13.3394C18.3948 13.5364 18.6775 13.3646 18.7124 12.8686C18.7368 12.5201 18.6856 12.1789 18.6076 11.8402C18.5938 11.7786 18.5897 11.7138 18.5703 11.5695Z" fill="#E0E6EE"/>
<path d="M30.8657 31.9973C28.9219 32.1237 27.0098 31.8498 25.1107 31.4997C23.478 31.1982 21.847 31.0021 20.1875 31.2088C19.1031 31.3441 18.0358 31.5783 16.962 31.7777C16.7427 31.8182 16.5217 31.849 16.3024 31.8838C15.9491 31.9941 15.9068 31.712 15.8158 31.5346C15.8646 31.9349 15.8646 31.9349 15.3464 32.0005C14.7664 31.9941 14.184 32.0135 13.6138 31.8757C13.4399 31.8336 13.271 31.7752 13.1361 31.6488C12.9859 31.5086 12.9501 31.3417 13.0517 31.1658C13.4326 30.5053 13.9143 29.9753 14.7388 29.8992C15.058 29.87 15.3545 30.0248 15.6485 30.0337C15.9141 30.041 16.1148 29.6933 16.4307 29.6609C17.0797 29.5945 17.6646 29.7906 18.221 30.0904C18.3834 30.1779 18.4866 30.2047 18.6515 30.0653C19.1632 29.635 19.7586 29.6593 20.363 29.827C20.6968 29.9202 21.0128 30.0604 21.3068 30.2444C21.4327 30.323 21.5229 30.3425 21.665 30.2557C22.4846 29.7549 23.292 29.8124 24.0808 30.3392C24.1604 30.3927 24.2205 30.4989 24.3545 30.3741C25.118 29.6633 26.0749 29.8522 26.8482 30.4519C27.0301 30.5929 27.1089 30.5872 27.2632 30.4251C27.5865 30.088 27.9919 30.1625 28.3899 30.2663C28.4329 30.2776 28.4784 30.289 28.5142 30.3133C28.8659 30.5451 29.2046 30.5783 29.6124 30.3951C30.0494 30.1982 30.4571 30.4138 30.8235 30.6763C30.9794 30.2339 31.1833 30.0953 31.6512 30.152C31.9744 30.1909 32.2969 30.1958 32.621 30.199C32.9695 30.2355 33.0856 30.3846 33.0978 30.8101C32.8874 31.3239 32.4586 31.5759 31.9639 31.7453C31.8071 31.7987 31.6463 31.8393 31.4879 31.8855C31.3392 31.9495 31.2678 31.8328 31.1679 31.7315C31.0679 31.8263 31.046 32.0135 30.8657 31.9973Z" fill="#F5F8FA"/>
<path d="M15.5624 26.0495C16.4697 25.8161 17.2934 26.0884 18.1008 26.4644C18.1901 26.5065 18.2811 26.5454 18.3713 26.5859C18.5215 26.6297 18.5045 26.7626 18.524 26.8801C18.6417 26.9158 18.736 26.7675 18.8562 26.8372C20.6115 27.791 22.4765 28.2659 24.482 28.1111C25.3747 28.0422 26.2446 27.8437 27.0935 27.5649C27.3209 27.4904 27.4947 27.4531 27.6369 27.8097C27.6401 27.4652 27.7457 27.3186 27.9992 27.248C28.4272 27.1289 28.8399 26.9571 29.2655 26.8266C29.8487 26.6475 30.6244 27.1792 30.6577 27.7797C30.6716 28.0285 30.5595 28.2457 30.354 28.3818C29.7236 28.8016 29.0194 28.9766 28.2648 28.9726C28.0243 28.971 27.8172 28.6833 27.6613 28.7505C27.4801 28.8283 27.3242 29.0317 27.1122 29.1006C26.4713 29.3097 25.8109 29.4102 25.1351 29.3908C25.0474 29.3883 24.9369 29.3875 24.8776 29.3373C24.5681 29.0804 24.2562 29.2384 23.9289 29.2822C23.0167 29.4053 22.1167 29.2805 21.2719 28.9369C20.9973 28.8251 20.7805 28.7432 20.4751 28.7813C19.9178 28.8502 19.3598 28.7538 18.8269 28.5739C18.4752 28.4547 18.1771 28.2692 18.2405 27.808C17.1797 28.4823 15.6761 28.0982 15.218 27.0552C15.1408 26.6548 15.0986 26.2658 15.5624 26.0495Z" fill="#F5F8FA"/>
<path d="M12.6895 26.5245C12.7284 24.7772 13.4416 23.1913 15.0483 22.5243C15.6526 22.2731 16.2789 22.2293 16.919 22.2998C17.0969 22.3193 17.2187 22.3809 17.2902 22.5932C17.5233 23.2926 18.1877 23.7375 18.9984 23.7594C20.0032 23.7861 21.0039 23.838 21.9957 24.0252C22.2987 24.0819 22.4156 24.1929 22.3466 24.5001C22.3027 24.6946 22.2922 24.8972 22.2759 25.0965C22.2223 25.7805 21.8227 26.065 21.1574 25.8551C20.5125 25.6517 19.8927 25.3737 19.2331 25.2076C17.4632 24.7635 15.7266 24.7375 14.0508 25.5771C13.5724 25.8186 13.1484 26.1436 12.6895 26.5245Z" fill="#E0E6EE"/>
<path d="M12.1602 32.1325C12.7856 32.2913 13.3623 32.4477 13.9504 32.5579C15.0218 32.7597 16.0802 32.699 17.1467 32.515C19.1725 32.1649 21.2048 31.8626 23.2721 31.9396C24.9446 32.002 26.5594 32.3829 28.1612 32.8311C28.8605 33.0264 29.568 33.1641 30.3015 33.1641C31.4103 33.1641 32.2794 32.7038 32.9707 31.8651C33.0397 31.7816 33.1063 31.6957 33.2225 31.5498C33.242 31.9882 33.1063 32.3043 32.9195 32.5985C32.4524 33.3335 31.7222 33.6666 30.9172 33.883C29.7086 34.2071 28.5511 33.9397 27.4017 33.5823C26.0923 33.1755 24.7805 32.7881 23.3956 32.716C22.3152 32.6592 21.2585 32.8019 20.2009 32.9818C18.8273 33.2152 17.4651 33.5231 16.0761 33.6617C14.6124 33.8084 13.2925 33.5329 12.3023 32.3327C12.2609 32.2824 12.2268 32.2265 12.1602 32.1325Z" fill="#F5F8FA"/>
<path d="M12.1504 34.8545C12.9984 35.3926 13.8935 35.831 14.8471 36.1447C15.7618 36.4461 16.7032 36.6195 17.6633 36.6949C17.76 36.7022 17.9062 36.6366 17.9135 36.8238C17.9476 37.7185 18.3944 38.3773 19.1546 38.9C16.2995 38.2987 13.3777 36.5847 12.1504 34.8545Z" fill="#8FA0BD"/>
<path d="M31.3312 34.5716C30.2883 35.6503 29.0983 36.4761 27.6232 36.8335C27.5688 36.8464 27.5143 36.8554 27.4599 36.8675C27.0318 36.9648 27.0221 36.9518 27.1244 36.5385C27.2804 35.9072 27.1634 35.3253 26.7833 34.7986C26.6801 34.6551 26.564 34.5214 26.3926 34.3066C27.2487 34.6421 28.0521 34.8366 28.8846 34.8836C29.7148 34.9307 30.5295 34.8456 31.3312 34.5716Z" fill="#8FA0BD"/>
<path d="M28.5477 17.7132C28.8678 18.0398 29.1521 18.274 29.3795 18.5795C29.2406 18.6022 29.1651 18.5042 29.0757 18.4531C28.2951 18.0025 27.4731 17.6735 26.565 17.5981C26.4886 17.5916 26.4123 17.5989 26.366 17.509C26.2336 17.2529 26.0581 17.0171 25.9923 16.7294C25.8997 16.3282 26.0386 16.1467 26.4472 16.1905C27.6908 16.3242 28.7849 16.8226 29.7605 17.59C30.2405 17.9677 30.671 18.3939 31.013 18.9086C30.2527 18.4458 29.4737 18.0309 28.5477 17.7132Z" fill="#8FA0BD"/>
<path d="M32.8611 16.5824C31.9725 16.4884 31.109 16.302 30.3707 15.7533C30.0839 15.5402 29.9036 15.2565 29.8337 14.8975C29.7874 14.6569 29.7931 14.5661 30.0994 14.6115C31.0172 14.7476 31.9416 14.7954 32.8595 14.5815C33.2274 14.4956 33.5678 14.353 33.8805 14.1406C33.2786 15.1958 32.3794 15.7412 31.1309 15.7112C31.6752 16.0994 32.2925 16.2825 32.8611 16.5824Z" fill="#F4F7F9"/>
<path d="M11.4062 14.0889C12.671 14.9698 13.3476 15.0557 15.4839 14.5719C15.5253 15.0395 15.3271 15.396 14.9835 15.6789C14.3694 16.1846 13.6221 16.3669 12.8659 16.5217C12.7035 16.5549 12.5378 16.5719 12.3655 16.5752C12.9544 16.2616 13.5953 16.0606 14.172 15.674C12.874 15.7802 11.948 15.2631 11.4062 14.0889Z" fill="#F4F7F9"/>
<path d="M34.9727 25.5113C36.823 24.1215 38.182 22.3443 39.1404 20.2502C39.1705 20.1837 39.1486 20.0695 39.2777 20.0792C38.796 21.6911 37.879 23.0574 36.8409 24.3533C36.3462 24.97 35.8012 25.5413 35.218 26.1183C35.0799 25.9263 35.0352 25.7147 34.9727 25.5113Z" fill="#DFE5ED"/>
<path d="M7.14662 15.4464C6.84608 16.4432 6.87695 17.4684 6.8932 18.4911C6.89401 18.5284 6.933 18.5648 6.95412 18.6021C7.05321 19.1629 7.17587 19.7164 7.41061 20.2399C7.44473 20.3153 7.50078 20.3996 7.42442 20.4855C6.91756 19.8258 6.68606 19.0559 6.52198 18.2577C6.31729 17.2609 6.40827 15.8621 6.75673 14.8896C6.94193 15.0517 7.06865 15.23 7.14662 15.4464Z" fill="#E0E6EE"/>
<path d="M34.377 23.6995C35.8707 22.6224 37.0323 21.2683 37.8186 19.5688C37.8186 19.8403 37.756 20.0365 37.5351 20.4692C37.4701 20.5972 37.3929 20.7196 37.3986 20.8712C37.1354 21.2918 36.882 21.7188 36.6075 22.1313C36.0478 22.9742 35.3566 23.6946 34.5345 24.3243C34.4492 24.1055 34.377 23.9126 34.377 23.6995Z" fill="#DFE5ED"/>
<path d="M25.0983 9.28867C24.6816 9.43697 24.2828 9.61607 23.9766 10.0569C24.0204 9.57231 24.1821 9.23923 24.4883 8.99125C24.6386 8.8705 24.6767 8.70032 24.7539 8.54634C24.7775 8.71895 24.8701 8.66223 24.9651 8.61117C25.2632 8.45152 25.5873 8.36562 25.9138 8.29592C26.0357 8.26999 26.2022 8.21083 26.2834 8.34779C26.3703 8.49366 26.2184 8.58281 26.1372 8.68492C25.9804 8.88185 25.7457 8.92642 25.5337 9.02367C25.3818 9.09336 25.1657 9.07715 25.0983 9.28867Z" fill="#637298"/>
<path d="M15.5624 26.0498C15.2659 26.3229 15.1822 26.669 15.2164 27.0555C15.1782 26.643 14.9386 26.7054 14.6567 26.8035C13.6576 27.1495 13.0411 27.8708 12.6406 28.8271C12.7064 27.5726 14.0719 26.2816 15.5624 26.0498Z" fill="#8E9FBC"/>
<path d="M33.0979 30.8098C33.0167 30.5456 32.9103 30.3008 32.6211 30.1987C33.1913 29.672 33.2604 29.0455 32.9411 28.2983C33.5357 28.975 33.5836 30.0423 33.0979 30.8098Z" fill="#8E9EBC"/>
<path d="M7.42539 20.4856C7.28892 19.988 7.05742 19.5188 6.99163 18.9985C6.97457 18.8664 6.96483 18.7351 6.95508 18.603C7.04605 18.9264 7.1419 19.2489 7.228 19.5739C7.34497 20.0156 7.57891 20.4078 7.74705 20.8276C7.65932 20.8884 7.57891 20.8649 7.58622 20.7636C7.59678 20.6209 7.46844 20.582 7.42539 20.4856Z" fill="#434E71"/>
<path d="M15.3457 31.9994C15.6617 31.9629 15.9013 31.8648 15.7299 31.4224C15.9801 31.569 15.998 31.9086 16.3018 31.8835C16.3204 31.9775 16.4244 32.1055 16.1913 32.0723C15.9119 32.0326 15.6276 32.0221 15.3457 31.9994Z" fill="#4F5F86"/>
<path d="M30.8652 31.9972C31.0504 31.9137 31.0277 31.7055 31.1114 31.5645C31.3144 31.592 31.2446 31.917 31.4874 31.8846C31.2966 32.0142 31.1284 32.2703 30.8652 31.9972Z" fill="#51628A"/>
<path d="M18.856 26.838C18.722 26.9012 18.588 26.9644 18.4483 27.0301C18.4028 26.8745 18.5116 26.7084 18.3711 26.5868C18.6578 26.4288 18.7634 26.6208 18.856 26.838Z" fill="#52638A"/>
<path d="M33.5703 19.0688C33.6084 19.1086 33.6474 19.1491 33.6856 19.1888C33.6856 19.2828 33.6856 19.376 33.6856 19.4984C33.5532 19.3557 33.5443 19.2163 33.5703 19.0688Z" fill="#747C9E"/>
<path d="M38.3978 12.5615C38.5871 12.581 38.5668 12.7512 38.596 12.8654C38.8048 13.6734 38.7934 14.4943 38.7024 15.325C38.6057 14.44 38.2792 13.6434 37.8008 12.9035C37.9998 12.7901 38.1988 12.6758 38.3978 12.5615Z" fill="#00030B"/>
<path d="M98.347 16.9536C98.2406 16.9042 98.1163 16.8013 97.9766 16.6441C97.8352 16.4877 97.6817 16.268 97.5168 15.9852L97.4478 15.8685L96.4219 15.9504L97.0798 15.2931L96.5421 14.3344C96.1847 13.7266 95.8143 13.3052 95.4341 13.0645C95.7257 12.9762 95.9905 12.8506 96.2285 12.6844C96.4674 12.5183 96.6558 12.306 96.7979 12.0483C96.9377 11.7922 97.0067 11.4964 97.0067 11.1682C97.0067 10.7597 96.897 10.3967 96.6753 10.079C96.4527 9.76213 96.1319 9.51739 95.7103 9.34559C95.2904 9.17216 94.8022 9.08545 94.2425 9.08545H90.0098V9.24753C90.3639 9.24753 90.6198 9.32776 90.779 9.4866C90.9374 9.64706 91.017 9.92179 91.017 10.3116V16.0071C91.017 16.324 90.9569 16.5776 90.8342 16.7689C90.7132 16.9601 90.437 17.0574 90.0098 17.0574V17.2162H93.8429V17.0671C93.6228 17.059 93.4441 17.0347 93.3117 16.9925C93.1793 16.9504 93.0647 16.8532 92.9729 16.7024C92.882 16.5476 92.8349 16.3183 92.8349 16.0071V13.4073H93.094C93.4238 13.4073 93.6942 13.4819 93.9079 13.6286C94.1199 13.7752 94.3262 14.0143 94.5252 14.3466C94.7242 14.6764 95.0418 15.2672 95.4772 16.1173C95.6145 16.3904 95.8102 16.7551 96.0645 17.2154H98.6971V17.0566C98.5703 17.0363 98.455 17.0031 98.347 16.9536ZM94.6406 12.5005C94.3189 12.8044 93.8405 12.9551 93.2053 12.9551H92.8332V9.54009H93.2759C93.6788 9.54009 94.0183 9.60492 94.2929 9.73296C94.5674 9.86101 94.7746 10.0498 94.9143 10.2921C95.0524 10.5385 95.1214 10.8367 95.1214 11.1901C95.1222 11.7614 94.9614 12.1966 94.6406 12.5005Z" fill="white"/>
<path d="M106.488 28.077C106.381 28.0292 106.258 27.9247 106.118 27.7699C106.01 27.6491 105.892 27.4798 105.769 27.2869L104.738 27.5292L105.353 26.8282C105.366 26.8323 105.387 26.6694 105.4 26.6734L104.682 25.4586C104.324 24.8533 103.953 24.4278 103.573 24.1912C103.864 24.1036 104.131 23.9748 104.369 23.8095C104.608 23.6449 104.796 23.4334 104.937 23.1749C105.077 22.9172 105.148 22.623 105.148 22.2924C105.148 21.8839 105.036 21.5209 104.815 21.2056C104.593 20.8871 104.271 20.644 103.851 20.4706C103.43 20.2988 102.941 20.2129 102.382 20.2129H98.1484V20.3717C98.5042 20.3717 98.7601 20.452 98.9193 20.6124C99.0785 20.7713 99.1581 21.0476 99.1581 21.4374V27.1329C99.1581 27.4498 99.0964 27.7034 98.9753 27.8931C98.8535 28.0843 98.5781 28.1816 98.1484 28.1816V28.3404H101.984V28.1937C101.764 28.1856 101.584 28.1597 101.453 28.1192C101.32 28.0754 101.206 27.9782 101.115 27.825C101.021 27.6718 100.974 27.4417 100.974 27.1337V24.534H101.235C101.564 24.534 101.834 24.6085 102.047 24.7536C102.259 24.9027 102.464 25.141 102.665 25.4716C102.865 25.8039 103.181 26.3922 103.617 27.2423C103.754 27.5154 103.951 27.8825 104.204 28.3404H106.837V28.1816C106.712 28.1605 106.595 28.1281 106.488 28.077ZM102.781 23.6247C102.459 23.9262 101.981 24.0793 101.347 24.0793H100.974V20.6643H101.418C101.82 20.6643 102.16 20.7267 102.436 20.8572C102.709 20.9852 102.916 21.17 103.055 21.4172C103.193 21.6619 103.264 21.9593 103.264 22.3126C103.264 22.884 103.103 23.3216 102.781 23.6247Z" fill="white"/>
<path d="M55.3157 11.8789H55.1224C55.0631 11.4859 54.9494 11.1366 54.782 10.8303C54.6139 10.5248 54.41 10.2727 54.1728 10.0717C53.9348 9.87157 53.6668 9.7184 53.3687 9.61548C53.0714 9.51256 52.757 9.4607 52.424 9.4607C51.9813 9.4607 51.5906 9.55389 51.2527 9.74109C50.914 9.92992 50.6549 10.1649 50.4737 10.4445C50.2552 10.7979 50.1025 11.1869 50.014 11.6172C49.9254 12.0451 49.8816 12.5038 49.8816 12.9884C49.8816 13.8725 50.0359 14.5776 50.3462 15.1084C50.6565 15.6376 51.0301 16.0063 51.4688 16.2138C51.9066 16.4221 52.3371 16.525 52.7627 16.525C53.7894 16.525 54.6789 16.0241 55.4327 15.0241V15.7697C55.1849 16.0582 54.9193 16.3118 54.635 16.5315C54.3507 16.7511 53.9966 16.9358 53.5717 17.0833C53.1469 17.23 52.6498 17.3046 52.0812 17.3046C51.4086 17.3046 50.8092 17.1895 50.2828 16.965C49.7557 16.7381 49.3203 16.4334 48.9726 16.0517C48.625 15.6676 48.3626 15.2308 48.1855 14.738C48.0085 14.2437 47.9199 13.7372 47.9199 13.2137C47.9199 12.7663 47.9768 12.3465 48.0913 11.9608C48.2058 11.575 48.361 11.233 48.5567 10.9316C48.7525 10.6333 48.9848 10.3546 49.2545 10.0944C49.7167 9.67626 50.1959 9.39019 50.6955 9.23865C51.1942 9.08386 51.7319 9.00768 52.3078 9.00768C52.8764 9.00768 53.497 9.10169 54.1696 9.29051C54.4059 9.34562 54.5798 9.37317 54.6911 9.37317C54.8941 9.37317 55.0493 9.24108 55.1557 8.97607H55.3157V11.8789Z" fill="white"/>
<path d="M56.0703 13.1269C56.0703 12.5767 56.1654 12.0475 56.3562 11.5434C56.5463 11.0385 56.8257 10.596 57.1953 10.216C57.5649 9.83427 58.0133 9.53847 58.5388 9.32777C59.0652 9.11625 59.6606 9.00928 60.325 9.00928C60.9976 9.00928 61.5962 9.11868 62.1234 9.33425C62.6497 9.5482 63.0965 9.84561 63.4645 10.2306C63.8324 10.6139 64.1094 11.0555 64.2987 11.558C64.4871 12.0604 64.5813 12.5953 64.5813 13.1626C64.5813 13.7242 64.4895 14.255 64.3076 14.7518C64.1248 15.2461 63.856 15.6878 63.501 16.0695C63.146 16.4512 62.7001 16.7535 62.1632 16.9747C61.6263 17.1943 61.0171 17.307 60.338 17.307C59.6061 17.307 58.9677 17.1806 58.4235 16.9326C57.8784 16.6862 57.4333 16.3556 57.0881 15.9488C56.7421 15.5403 56.487 15.0897 56.3205 14.5946C56.1532 14.1027 56.0703 13.614 56.0703 13.1269ZM58.01 13.0216C58.01 13.5735 58.0515 14.1181 58.1343 14.6521C58.2172 15.1886 58.4324 15.687 58.7792 16.153C59.1261 16.619 59.6492 16.8524 60.3478 16.8524C61.3265 16.8524 61.9536 16.4585 62.229 15.674C62.5035 14.8871 62.6416 14.0873 62.6416 13.2696C62.6416 12.6334 62.5872 12.0378 62.4751 11.4818C62.3646 10.9259 62.138 10.4502 61.796 10.0547C61.4549 9.65922 60.9716 9.46067 60.3478 9.46067C59.6459 9.46067 59.122 9.68759 58.7768 10.1382C58.4316 10.5888 58.2172 11.0669 58.1343 11.5742C58.0515 12.0839 58.01 12.5669 58.01 13.0216Z" fill="white"/>
<path d="M68.1095 9.08691L73.0912 14.3237V10.6032C73.0912 10.1161 72.9913 9.77981 72.7915 9.60233C72.5925 9.42485 72.287 9.30491 71.8777 9.24737V9.08691H74.693V9.24737C74.3827 9.27979 74.1512 9.36407 74.0001 9.49779C73.8482 9.63394 73.7508 9.79034 73.7069 9.97187C73.663 10.151 73.6403 10.3617 73.6403 10.604V17.306H73.4348L67.4613 11.0457V15.6212C67.4613 16.0029 67.5442 16.3311 67.7082 16.601C67.8723 16.87 68.1761 17.0224 68.6188 17.0572V17.2161H65.7052V17.0572C66.5215 16.9908 66.926 16.5912 66.9187 15.8578V10.4776C66.896 10.4646 66.8659 10.4379 66.8302 10.4014C66.7961 10.3674 66.7408 10.3139 66.6637 10.2409C66.5857 10.1664 66.5158 10.1015 66.4533 10.0424C65.9578 9.56829 65.524 9.30086 65.1504 9.24737V9.08691H68.1095Z" fill="white"/>
<path d="M83.0598 9.08691V9.24737C82.7593 9.29114 82.5026 9.40621 82.2865 9.59098C82.0689 9.77819 81.8479 10.1923 81.618 10.8422L79.3014 17.3052H79.0862L76.3049 10.3228C76.1709 9.97187 76.0085 9.71011 75.8143 9.53993C75.6202 9.36974 75.3391 9.27412 74.9688 9.24737V9.08691H78.6987V9.24737C78.5135 9.25872 78.3641 9.28789 78.2495 9.33895C78.135 9.38676 78.0773 9.51075 78.0773 9.71173C78.0773 9.85112 78.1261 10.0399 78.2211 10.279L79.8107 14.2897L81.0803 10.7377C81.1867 10.4549 81.2411 10.1988 81.2411 9.97187C81.2411 9.84221 81.1908 9.69877 81.0925 9.53993C80.9926 9.38109 80.7668 9.28384 80.4159 9.24737V9.08691H83.0598Z" fill="white"/>
<path d="M89.2617 9.08691L89.3283 10.9071H89.1667C89.0928 10.6032 89.0099 10.3495 88.9206 10.1526C88.8304 9.95404 88.7012 9.80088 88.5347 9.69634C88.369 9.59098 88.1416 9.53993 87.854 9.53993H86.2067V12.955H87.5218C87.9133 12.955 88.1976 12.8691 88.378 12.6973C88.5559 12.523 88.6598 12.2677 88.6907 11.9298H88.8523V14.3132H88.6907C88.6346 13.9518 88.5006 13.7135 88.2862 13.5911C88.0734 13.4688 87.8167 13.408 87.5226 13.408H86.2076V15.7476C86.2076 16.4251 86.5585 16.7655 87.2611 16.7655H87.7606C88.0961 16.7655 88.3706 16.7193 88.5826 16.6318C88.7963 16.5442 88.9709 16.3911 89.109 16.1771C89.2479 15.9607 89.3722 15.6552 89.4843 15.2622H89.6443L89.5225 17.2161H83.3711V17.0572C83.8008 17.0572 84.077 16.96 84.2021 16.7655C84.328 16.5726 84.3913 16.3206 84.3913 16.0069V10.3114C84.3913 10.0132 84.3336 9.7636 84.2191 9.55533C84.1046 9.35111 83.8406 9.24737 83.4263 9.24737H83.3711V9.08691H89.2617Z" fill="white"/>
<path d="M99.3781 9.08715H105.08C105.343 9.08715 105.561 9.05473 105.733 8.98828H105.895L105.939 10.8984H105.784C105.702 10.3384 105.566 9.98346 105.372 9.83029C105.178 9.6755 104.941 9.60095 104.66 9.60095H103.136V16.0072C103.136 16.2227 103.161 16.4027 103.207 16.5518C103.256 16.7025 103.354 16.8208 103.502 16.9165C103.649 17.0105 103.864 17.0575 104.149 17.0575V17.2163H100.31V17.0575C100.735 17.0575 101.011 16.9602 101.136 16.769C101.261 16.5777 101.323 16.324 101.323 16.0072V9.60095H99.7989C99.5414 9.60095 99.331 9.6828 99.1685 9.84569C99.0053 10.0102 98.8453 10.3595 98.6925 10.8984H98.5195L98.5634 8.98828H98.725C98.8997 9.05473 99.1174 9.08715 99.3781 9.08715Z" fill="white"/>
<path d="M58.0525 20.2124V20.3712C57.8388 20.3866 57.6618 20.411 57.5237 20.4515C57.3848 20.4896 57.2694 20.5779 57.1768 20.7173C57.085 20.8551 57.0517 21.0593 57.0769 21.3299L57.5261 26.7904C57.5594 27.1721 57.6138 27.4534 57.6902 27.6365C57.7657 27.8197 57.8608 27.9404 57.9729 28.0036C58.0849 28.0668 58.2636 28.126 58.5073 28.1811V28.3399H54.7611V28.1811C55.0755 28.1714 55.3216 28.0919 55.5011 27.9331C55.6806 27.7743 55.7513 27.4615 55.7147 26.9955L55.3159 21.8194H55.2948L52.6289 28.3399H52.4348L49.686 22.0334H49.6641L49.3042 26.5635C49.2669 27.0109 49.2986 27.3504 49.3985 27.5895C49.4976 27.8245 49.63 27.9793 49.794 28.0514C49.9589 28.1219 50.1498 28.1665 50.3683 28.1811V28.3399H47.5977V28.1811C47.9486 28.1584 48.2134 28.019 48.3929 27.7613C48.5724 27.5036 48.6934 27.0757 48.756 26.476L49.3051 21.3308C48.9615 20.7821 48.492 20.4636 47.8974 20.3721V20.2132H50.8459L53.2056 25.5594L55.3947 20.2132H58.0525V20.2124Z" fill="white"/>
<path d="M59.0176 24.2514C59.0176 23.6979 59.1134 23.1704 59.3027 22.6663C59.4928 22.1622 59.773 21.7206 60.1426 21.3389C60.5122 20.9588 60.9597 20.663 61.4861 20.4507C62.0133 20.2391 62.6087 20.1338 63.2731 20.1338C63.9457 20.1338 64.5451 20.2432 65.0715 20.4571C65.5978 20.6727 66.0454 20.9709 66.4134 21.3526C66.7805 21.7368 67.0583 22.1792 67.2467 22.6817C67.4352 23.1841 67.5294 23.7166 67.5294 24.2839C67.5294 24.8471 67.4376 25.3763 67.2557 25.8723C67.0721 26.369 66.8041 26.8083 66.4491 27.1924C66.0949 27.5741 65.649 27.8764 65.1113 28.096C64.5735 28.3172 63.9652 28.4283 63.2853 28.4283C62.5542 28.4283 61.9166 28.3043 61.3716 28.0563C60.8265 27.8059 60.3814 27.4793 60.0362 27.0684C59.691 26.6616 59.4351 26.211 59.2686 25.7175C59.1004 25.2256 59.0176 24.7369 59.0176 24.2514ZM60.9565 24.1445C60.9565 24.6964 60.9979 25.2409 61.0816 25.7758C61.1644 26.3107 61.3805 26.8131 61.7273 27.2791C62.0742 27.7451 62.5973 27.9761 63.295 27.9761C64.2738 27.9761 64.9009 27.5822 65.1754 26.7977C65.4508 26.0125 65.5889 25.211 65.5889 24.3949C65.5889 23.7571 65.5328 23.1615 65.4224 22.6055C65.3111 22.0504 65.0853 21.5763 64.7433 21.1792C64.4013 20.7837 63.918 20.5876 63.2942 20.5876C62.5924 20.5876 62.0693 20.8129 61.7233 21.2635C61.3781 21.7141 61.1636 22.1938 61.0808 22.702C60.9987 23.2085 60.9565 23.6898 60.9565 24.1445Z" fill="white"/>
<path d="M71.0571 20.2124L76.0396 25.4476V21.7295C76.0396 21.24 75.9397 20.9061 75.7399 20.727C75.5409 20.5495 75.2363 20.4312 74.8261 20.3721V20.2132H77.6414V20.3721C77.3311 20.4061 77.0996 20.4904 76.9485 20.6225C76.7975 20.7578 76.6992 20.9166 76.6553 21.0957C76.6114 21.2748 76.5887 21.4872 76.5887 21.7295V28.4291H76.384L70.4105 22.1703V26.7442C70.4105 27.1284 70.4926 27.4525 70.6567 27.7265C70.8215 27.9955 71.1253 28.1462 71.568 28.1811V28.3399H68.6536V28.1811C69.4699 28.1146 69.8736 27.7151 69.8671 26.9833V21.6031C69.8452 21.5877 69.8151 21.5609 69.7786 21.5253C69.7453 21.4928 69.69 21.4394 69.6129 21.3648C69.5349 21.2902 69.465 21.2254 69.4017 21.1662C68.907 20.6905 68.4724 20.4272 68.0996 20.3712V20.2124H71.0571Z" fill="white"/>
<path d="M82.7265 22.2252H82.5105C82.3634 21.7171 82.1287 21.3159 81.8078 21.0258C81.4846 20.7316 81.0971 20.5865 80.639 20.5865C80.4124 20.5865 80.2077 20.6303 80.0208 20.7219C79.8324 20.8118 79.6854 20.9399 79.5765 21.1076C79.466 21.2754 79.4124 21.4666 79.4124 21.6846C79.4124 21.8086 79.4336 21.9334 79.4766 22.055C79.518 22.1757 79.6212 22.3241 79.7845 22.4999C79.9461 22.6774 80.1939 22.8727 80.5261 23.0858C80.8989 23.3168 81.1263 23.4643 81.2076 23.5267C81.673 23.8176 82.054 24.0883 82.3488 24.3387C82.6445 24.5891 82.8695 24.8582 83.0246 25.1483C83.1798 25.44 83.2578 25.7683 83.2578 26.1354C83.2578 26.4749 83.1928 26.7829 83.0612 27.0617C82.9304 27.338 82.7428 27.5787 82.5015 27.7837C82.2595 27.988 81.9711 28.1468 81.6373 28.2594C81.3026 28.3697 80.9403 28.4272 80.548 28.4272C80.1467 28.4272 79.6805 28.351 79.1509 28.2003C79.0924 28.1865 79.0177 28.1695 78.9275 28.1508C78.8365 28.1314 78.7561 28.1241 78.6855 28.1241C78.5133 28.1241 78.3873 28.2141 78.3086 28.3932H78.1152L78.1656 26.0997H78.3817C78.4523 26.5333 78.6034 26.8947 78.8333 27.1865C79.064 27.475 79.3255 27.6873 79.6179 27.8186C79.9096 27.9482 80.1955 28.0131 80.4765 28.0131C80.8875 28.0131 81.2271 27.8988 81.4935 27.6711C81.7624 27.4442 81.8956 27.1654 81.8956 26.8364C81.8956 26.6192 81.8387 26.4239 81.7266 26.261C81.6145 26.0965 81.4456 25.9352 81.2189 25.7739C80.9939 25.6135 80.5691 25.3363 79.9445 24.9392C79.6163 24.7253 79.3361 24.5186 79.1062 24.3201C78.8739 24.1215 78.6952 23.9327 78.5652 23.7487C78.4361 23.5672 78.3443 23.3841 78.2907 23.2025C78.2371 23.021 78.2103 22.8265 78.2103 22.6198C78.2103 22.2228 78.3126 21.8297 78.5173 21.4456C78.7228 21.0582 79.0136 20.743 79.3897 20.5006C79.7674 20.2543 80.1979 20.1319 80.682 20.1319C80.9062 20.1319 81.1231 20.153 81.3302 20.1992C81.3855 20.2048 81.4586 20.2227 81.5504 20.2446C81.6438 20.2697 81.7209 20.2883 81.7835 20.3037C81.9476 20.3329 82.0686 20.3459 82.149 20.3459C82.2749 20.3459 82.3634 20.3264 82.413 20.2867C82.4633 20.247 82.5088 20.1878 82.5543 20.1108H82.7257V22.2252H82.7265Z" fill="white"/>
<path d="M84.6058 20.2122H90.3072C90.5687 20.2122 90.7872 20.1781 90.9602 20.1133H91.1211L91.1658 22.0218H91.0106C90.9286 21.4634 90.7921 21.1068 90.5988 20.9537C90.4038 20.8013 90.1675 20.7251 89.8864 20.7251H88.361V27.133C88.361 27.3445 88.3853 27.5268 88.4357 27.6776C88.482 27.8243 88.5795 27.9466 88.7273 28.0406C88.8743 28.1338 89.092 28.1817 89.3771 28.1817V28.3405H85.5367V28.1817C85.9615 28.1817 86.2361 28.0844 86.3611 27.8931C86.4879 27.7043 86.5512 27.4499 86.5512 27.133V20.7251H85.0274C84.7683 20.7251 84.5595 20.807 84.3963 20.9691C84.233 21.1336 84.0738 21.4845 83.9186 22.0218H83.748L83.7919 20.1133H83.9519C84.1249 20.1781 84.3434 20.2122 84.6058 20.2122Z" fill="white"/>
<path d="M97.3993 20.2122L97.4667 22.0324H97.3058C97.2327 21.7269 97.1507 21.4748 97.0589 21.2763C96.9687 21.0777 96.8404 20.927 96.6747 20.8217C96.5074 20.7163 96.2799 20.6653 95.9932 20.6653H94.3475V24.0803H95.6602C96.0517 24.0803 96.3368 23.9944 96.5163 23.8201C96.6942 23.6483 96.799 23.3923 96.8307 23.0519H96.9915V25.4353H96.8307C96.7746 25.0763 96.639 24.8332 96.4253 24.7132C96.2109 24.5925 95.9558 24.5317 95.6602 24.5317H94.3475V26.8713C94.3475 27.5488 94.6976 27.8851 95.3986 27.8851H95.8982C96.2344 27.8851 96.509 27.843 96.7194 27.7555C96.933 27.6655 97.1076 27.5132 97.2465 27.2992C97.3846 27.0853 97.5089 26.7797 97.6202 26.3867H97.781L97.6584 28.339H91.5086V28.1801C91.9367 28.1801 92.2145 28.0829 92.3388 27.89C92.4647 27.6971 92.5288 27.4451 92.5288 27.1315V21.4359C92.5288 21.1377 92.4704 20.8857 92.3558 20.6798C92.2413 20.4732 91.9773 20.3703 91.5631 20.3703H91.5078V20.2114H97.3993V20.2122Z" fill="white"/>
<path d="M48.4498 12.208C48.4498 12.208 47.9828 15.636 50.5276 16.8451C50.5276 16.8451 48.0461 16.2738 48.1517 12.6894L48.4498 12.208Z" fill="#8FA0BD"/>
<path d="M56.5635 11.9233C56.5635 11.9233 56.0964 15.5142 58.6421 16.7841C58.6421 16.7841 56.1606 16.1844 56.267 12.4258L56.5635 11.9233Z" fill="#8FA0BD"/>
<path d="M62.9067 12.7163C62.9067 12.7163 63.2195 15.7837 61.5137 16.8664C61.5137 16.8664 63.1764 16.3566 63.1057 13.1458L62.9067 12.7163Z" fill="#8FA0BD"/>
<path d="M59.5323 23.0771C59.5323 23.0771 59.0652 26.6697 61.6109 27.9371C61.6109 27.9371 59.1286 27.3374 59.2358 23.5804L59.5323 23.0771Z" fill="#8FA0BD"/>
<path d="M65.8755 23.8696C65.8755 23.8696 66.1882 26.9362 64.4824 28.0213C64.4824 28.0213 66.146 27.5108 66.0745 24.2983L65.8755 23.8696Z" fill="#8FA0BD"/>
<path d="M67.9961 11.1729L73.2783 16.7517V16.4972L68.282 11.2045L67.9961 11.1729Z" fill="#8FA0BD"/>
<path d="M70.8809 22.2446L76.1639 27.821V27.5665L71.1676 22.2746L70.8809 22.2446Z" fill="#8FA0BD"/>
<path d="M79.0703 16.4972L76.5254 10.1582L76.7796 10.1906L79.1986 16.1803L79.0703 16.4972Z" fill="#8FA0BD"/>
<path d="M52.4809 27.7241L49.6582 21.5034L49.9141 21.5229L52.5938 27.4007L52.4809 27.7241Z" fill="#8FA0BD"/>
<path d="M84.6371 10.3823L84.6695 16.2132C84.6695 16.2132 84.6062 16.6889 84.3828 16.8145C84.3828 16.8145 84.8604 16.5608 84.8604 16.0219C84.8604 15.483 84.7954 10.7292 84.7954 10.7292L84.6371 10.3823Z" fill="#8FA0BD"/>
<path d="M91.173 10.3823L91.2031 16.2132C91.2031 16.2132 91.1405 16.6889 90.918 16.8145C90.918 16.8145 91.3956 16.5608 91.3956 16.0219C91.3956 15.483 91.3306 10.7292 91.3306 10.7292L91.173 10.3823Z" fill="#8FA0BD"/>
<path d="M86.7163 22.1396L86.7488 27.4527C86.7488 27.4527 86.6855 27.9259 86.4629 28.0548C86.4629 28.0548 86.9389 27.8003 86.9389 27.2622C86.9389 26.7217 86.8747 22.4873 86.8747 22.4873L86.7163 22.1396Z" fill="#8FA0BD"/>
<path d="M92.7835 22.1396L92.816 27.4527C92.816 27.4527 92.7519 27.9259 92.5293 28.0548C92.5293 28.0548 93.0069 27.8003 93.0069 27.2622C93.0069 26.7217 92.9436 22.4873 92.9436 22.4873L92.7835 22.1396Z" fill="#8FA0BD"/>
<path d="M99.4448 22.1274L99.4765 27.4526C99.4765 27.4526 99.4132 27.9259 99.1914 28.0547C99.1914 28.0547 99.6682 27.8003 99.6682 27.2622C99.6682 26.7216 99.6049 22.4759 99.6049 22.4759L99.4448 22.1274Z" fill="#8FA0BD"/>
<path d="M101.523 10.3823L101.555 16.2132C101.555 16.2132 101.492 16.6889 101.27 16.8145C101.27 16.8145 101.747 16.5608 101.747 16.0219C101.747 15.483 101.683 10.7292 101.683 10.7292L101.523 10.3823Z" fill="#8FA0BD"/>
<path d="M78.3702 22.5615C78.3702 22.5615 78.2004 23.4919 79.3449 24.2942C80.4919 25.0965 82.4422 25.9822 81.9759 27.0406C81.9759 27.0406 82.3577 26.1103 81.6794 25.6467C80.8046 25.047 79.2605 23.9984 79.2605 23.9984C79.2605 23.9984 78.3272 23.2374 78.3702 22.5615Z" fill="#8FA0BD"/>
</svg>
